<svg xmlns="http://www.w3.org/2000/svg" viewBox="0 0 1200 630" fill="none">
  <defs>
    <linearGradient id="bg" x1="0%" y1="0%" x2="100%" y2="100%">
      <stop offset="0%" stop-color="#08101E"/>
      <stop offset="50%" stop-color="#0B1120"/>
      <stop offset="100%" stop-color="#0F172A"/>
    </linearGradient>
    <linearGradient id="brand" x1="0%" y1="0%" x2="100%" y2="100%">
      <stop offset="0%" stop-color="#6366F1"/>
      <stop offset="100%" stop-color="#8B5CF6"/>
    </linearGradient>
    <linearGradient id="accent" x1="0%" y1="0%" x2="100%" y2="0%">
      <stop offset="0%" stop-color="#06B6D4"/>
      <stop offset="100%" stop-color="#6366F1"/>
    </linearGradient>
  </defs>
  <rect width="1200" height="630" fill="url(#bg)"/>
  <circle cx="290" cy="125" r="170" fill="#6366F1" opacity="0.14"/>
  <circle cx="920" cy="120" r="120" fill="#06B6D4" opacity="0.12"/>
  <rect x="96" y="204" width="172" height="64" rx="32" fill="url(#brand)"/>
  <circle cx="136" cy="204" r="28" fill="url(#brand)"/>
  <circle cx="184" cy="178" r="36" fill="url(#brand)"/>
  <circle cx="232" cy="198" r="28" fill="url(#brand)"/>
  <path d="M98 236Q58 220 64 248Q58 270 98 258" fill="url(#accent)" opacity=".85"/>
  <path d="M266 236Q306 220 300 248Q306 270 266 258" fill="url(#accent)" opacity=".85"/>
  <rect x="144" y="154" width="80" height="24" rx="12" fill="#C4B5FD" opacity=".92"/>
  <line x1="184" y1="130" x2="184" y2="154" stroke="#E0D6FF" stroke-width="4" stroke-linecap="round"/>
  <circle cx="184" cy="122" r="7" fill="#06B6D4"/>
  <text x="356" y="248" fill="#F8FAFC" font-size="82" font-family="'Inter', 'Segoe UI', system-ui, sans-serif" font-weight="700">Pushpaka</text>
  <text x="356" y="334" fill="#94A3B8" font-size="34" font-family="'Inter', 'Segoe UI', system-ui, sans-serif">Self-hosted cloud deployment platform</text>
  <rect x="356" y="388" width="250" height="52" rx="26" fill="#111C30" stroke="#334155"/>
  <text x="392" y="422" fill="#A5B4FC" font-size="24" font-family="'Inter', 'Segoe UI', system-ui, sans-serif">Deploy from Git</text>
  <rect x="624" y="388" width="268" height="52" rx="26" fill="#111C30" stroke="#334155"/>
  <text x="660" y="422" fill="#67E8F9" font-size="24" font-family="'Inter', 'Segoe UI', system-ui, sans-serif">Realtime logs</text>
  <rect x="910" y="388" width="194" height="52" rx="26" fill="#111C30" stroke="#334155"/>
  <text x="946" y="422" fill="#C4B5FD" font-size="24" font-family="'Inter', 'Segoe UI', system-ui, sans-serif">Helm ready</text>
</svg>
